<?xml version="1.0" encoding="UTF-8"?>
<!DOCTYPE svg PUBLIC "-//W3C//DTD SVG 1.1//EN" "http://www.w3.org/Graphics/SVG/1.1/DTD/svg11.dtd">
<svg xmlns="http://www.w3.org/2000/svg" version="1.1" width="512px" height="512px" style="shape-rendering:geometricPrecision; text-rendering:geometricPrecision; image-rendering:optimizeQuality; fill-rule:evenodd; clip-rule:evenodd" xmlns:xlink="http://www.w3.org/1999/xlink">
<g><path style="opacity:0.981" fill="#fecd1d" d="M 226.5,15.5 C 246.419,16.3277 266.252,16.661 286,16.5C 286.5,85.4992 286.667,154.499 286.5,223.5C 291.008,222.874 295.508,222.54 300,222.5C 302.197,224.731 304.53,224.731 307,222.5C 310.537,223.434 313.871,223.434 317,222.5C 319.197,224.731 321.53,224.731 324,222.5C 327.537,223.434 330.871,223.434 334,222.5C 336.197,224.731 338.53,224.731 341,222.5C 346.886,223.616 352.553,223.616 358,222.5C 360.197,224.731 362.53,224.731 365,222.5C 368.537,223.434 371.871,223.434 375,222.5C 377.197,224.731 379.53,224.731 382,222.5C 387.886,223.616 393.553,223.616 399,222.5C 401.197,224.731 403.53,224.731 406,222.5C 409.537,223.434 412.871,223.434 416,222.5C 418.197,224.731 420.53,224.731 423,222.5C 426.537,223.434 429.871,223.434 433,222.5C 435.197,224.731 437.53,224.731 440,222.5C 445.736,223.412 451.402,223.412 457,222.5C 459.197,224.731 461.53,224.731 464,222.5C 467.537,223.434 470.871,223.434 474,222.5C 476.197,224.731 478.53,224.731 481,222.5C 484.537,223.434 487.871,223.434 491,222.5C 491.414,222.957 491.914,223.291 492.5,223.5C 493.666,244.826 493.833,266.159 493,287.5C 424.374,286.971 355.708,286.638 287,286.5C 286.667,355.833 286.333,425.167 286,494.5C 265.667,494.5 245.333,494.5 225,494.5C 224.833,425.498 224.333,356.498 223.5,287.5C 155.167,287.5 86.8333,287.5 18.5,287.5C 17.1667,266.167 17.1667,244.833 18.5,223.5C 20.061,222.653 21.561,222.986 23,224.5C 24.3333,223.833 25.6667,223.167 27,222.5C 30.5374,223.434 33.8707,223.434 37,222.5C 39.1969,224.731 41.5302,224.731 44,222.5C 49.8863,223.616 55.553,223.616 61,222.5C 63.1969,224.731 65.5302,224.731 68,222.5C 71.5374,223.434 74.8707,223.434 78,222.5C 80.1969,224.731 82.5302,224.731 85,222.5C 88.5374,223.434 91.8707,223.434 95,222.5C 97.1969,224.731 99.5302,224.731 102,222.5C 104.197,224.731 106.53,224.731 109,222.5C 112.537,223.434 115.871,223.434 119,222.5C 121.197,224.731 123.53,224.731 126,222.5C 129.537,223.434 132.871,223.434 136,222.5C 138.197,224.731 140.53,224.731 143,222.5C 148.886,223.616 154.553,223.616 160,222.5C 162.197,224.731 164.53,224.731 167,222.5C 170.537,223.434 173.871,223.434 177,222.5C 179.197,224.731 181.53,224.731 184,222.5C 187.537,223.434 190.871,223.434 194,222.5C 196.197,224.731 198.53,224.731 201,222.5C 206.736,223.412 212.402,223.412 218,222.5C 219,223.167 220,223.833 221,224.5C 222.011,223.663 223.178,223.33 224.5,223.5C 223.842,153.953 224.509,84.6193 226.5,15.5 Z"/></g>
</svg>
